<svg xmlns="http://www.w3.org/2000/svg" viewBox="0 0 1440 320"><path fill="#8fab8a" fill-opacity="1" d="M0,160L57.6,96L115.2,160L172.8,0L230.4,96L288,160L345.6,256L403.2,96L460.8,256L518.4,224L576,192L633.6,32L691.2,288L748.8,320L806.4,96L864,0L921.6,64L979.2,32L1036.8,128L1094.4,224L1152,32L1209.6,192L1267.2,32L1324.8,192L1382.4,224L1440,32L1440,320L1382.4,320L1324.8,320L1267.2,320L1209.6,320L1152,320L1094.4,320L1036.8,320L979.2,320L921.6,320L864,320L806.4,320L748.8,320L691.2,320L633.6,320L576,320L518.4,320L460.8,320L403.2,320L345.6,320L288,320L230.4,320L172.8,320L115.2,320L57.6,320L0,320Z"></path></svg>